<?xml version="1.0" encoding="UTF-8" standalone="no"?>
<svg
		xmlns:dc="http://purl.org/dc/elements/1.1/"
		xmlns:cc="http://creativecommons.org/ns#"
		xmlns:rdf="http://www.w3.org/1999/02/22-rdf-syntax-ns#"
		xmlns:svg="http://www.w3.org/2000/svg"
		xmlns:sodipodi="http://sodipodi.sourceforge.net/DTD/sodipodi-0.dtd"
		xmlns:inkscape="http://www.inkscape.org/namespaces/inkscape"
		xmlns="http://www.w3.org/2000/svg"
		height="16"
		viewBox="0 0 21.333333 21.333333"
		width="16"
		version="1.1"
		id="svg4544"
		sodipodi:docname="opacity.svg"
		inkscape:version="0.92.2 (5c3e80d, 2017-08-06)"
		style="fill:#000000">
	<metadata
			id="metadata4550">
		<rdf:RDF>
			<cc:Work
					rdf:about="">
				<dc:format>image/svg+xml</dc:format>
				<dc:type
						rdf:resource="http://purl.org/dc/dcmitype/StillImage"/>
				<dc:title></dc:title>
			</cc:Work>
		</rdf:RDF>
	</metadata>
	<defs
			id="defs4548"/>
	<sodipodi:namedview
			pagecolor="#ffffff"
			bordercolor="#666666"
			borderopacity="1"
			objecttolerance="10"
			gridtolerance="10"
			guidetolerance="10"
			inkscape:pageopacity="0"
			inkscape:pageshadow="2"
			inkscape:window-width="1200"
			inkscape:window-height="1816"
			id="namedview4546"
			showgrid="false"
			inkscape:zoom="18.541911"
			inkscape:cx="10.828897"
			inkscape:cy="5.8006686"
			inkscape:window-x="-8"
			inkscape:window-y="-8"
			inkscape:window-maximized="1"
			inkscape:current-layer="svg4544"/>
	<path
			d="M 24,-2.7683615 H 0 V 21.333333 h 24 z m 0,0 H 0 V 21.333333 H 24 Z M 0,21.333333 H 24 V -2.7683615 H 0 Z"
			id="path4540"
			inkscape:connector-curvature="0"
			style="fill:none;stroke-width:1.00211644"/>
	<g
			id="g5096"
			transform="matrix(1.1047816,0,0,1.1094629,-2.4530249,-2.6976334)"
			style="fill:#ffffff;fill-opacity:1">
		<path
				id="path4542"
				d="M 17.66,8 12,2.35 6.34,8 C 4.78,9.56 4,11.64 4,13.64 c 0,2 0.78,4.11 2.34,5.67 1.56,1.56 3.61,2.35 5.66,2.35 2.05,0 4.1,-0.79 5.66,-2.35 C 19.22,17.75 20,15.64 20,13.64 20,11.64 19.22,9.56 17.66,8 Z M 6,14 C 6.01,12 6.62,10.73 7.76,9.6 L 12,5.27 16.24,9.65 C 17.38,10.77 17.99,12 18,14 Z"
				inkscape:connector-curvature="0"
				style="fill:#ffffff;fill-opacity:1"/>
	</g>
</svg>
