<?xml version="1.0" encoding="UTF-8" standalone="no"?>
<svg
		xmlns:dc="http://purl.org/dc/elements/1.1/"
		xmlns:cc="http://creativecommons.org/ns#"
		xmlns:rdf="http://www.w3.org/1999/02/22-rdf-syntax-ns#"
		xmlns:svg="http://www.w3.org/2000/svg"
		xmlns:sodipodi="http://sodipodi.sourceforge.net/DTD/sodipodi-0.dtd"
		xmlns:inkscape="http://www.inkscape.org/namespaces/inkscape"
		xmlns="http://www.w3.org/2000/svg"
		height="16"
		viewBox="0 0 16 16"
		width="16"
		version="1.1"
		id="svg831"
		sodipodi:docname="settings_blue.svg"
		style="fill:#000000"
		inkscape:version="0.92.2 (5c3e80d, 2017-08-06)">
	<metadata
			id="metadata837">
		<rdf:RDF>
			<cc:Work
					rdf:about="">
				<dc:format>image/svg+xml</dc:format>
				<dc:type
						rdf:resource="http://purl.org/dc/dcmitype/StillImage"/>
				<dc:title></dc:title>
			</cc:Work>
		</rdf:RDF>
	</metadata>
	<defs
			id="defs835"/>
	<sodipodi:namedview
			pagecolor="#ffffff"
			bordercolor="#666666"
			borderopacity="1"
			objecttolerance="10"
			gridtolerance="10"
			guidetolerance="10"
			inkscape:pageopacity="0"
			inkscape:pageshadow="2"
			inkscape:window-width="1200"
			inkscape:window-height="1816"
			id="namedview833"
			showgrid="false"
			inkscape:zoom="30.583333"
			inkscape:cx="12"
			inkscape:cy="18.53951"
			inkscape:window-x="-8"
			inkscape:window-y="-8"
			inkscape:window-maximized="1"
			inkscape:current-layer="svg831"/>
	<path
			d="M 0,-8 H 24 V 16 H 0 Z"
			id="path827"
			inkscape:connector-curvature="0"
			style="fill:none"/>
	<path
			d="m 14.112565,8.784 c 0.0329,-0.256 0.05757,-0.512 0.05757,-0.784 0,-0.272 -0.02467,-0.528 -0.05757,-0.784 l 1.735353,-1.32 c 0.156265,-0.12 0.197387,-0.336 0.09869,-0.512 L 14.301723,2.616 C 14.203033,2.44 13.98097,2.376 13.800033,2.44 L 11.75215,3.24 C 11.324481,2.92 10.863913,2.656 10.362222,2.456 L 10.049698,0.336 C 10.025025,0.144 9.852312,0 9.6467012,0 H 6.3569313 C 6.1513206,0 5.9786077,0.144 5.9539345,0.336 l -0.3125282,2.12 c -0.50169,0.2 -0.9622579,0.472 -1.389928,0.784 L 2.2035964,2.44 c -0.1891618,-0.072 -0.4029969,0 -0.50169,0.176 L 0.05702126,5.384 C -0.04989627,5.56 -5.4971734e-4,5.776 0.15571437,5.896 L 1.8910682,7.216 C 1.8581705,7.472 1.8334972,7.736 1.8334972,8 c 0,0.264 0.024674,0.528 0.057571,0.784 l -1.73535383,1.32 c -0.15626408734,0.12 -0.19738622,0.336 -0.09869311,0.512 l 1.64488514,2.768 c 0.098693,0.176 0.3207526,0.24 0.50169,0.176 l 2.0478819,-0.8 c 0.4276701,0.32 0.888238,0.584 1.389928,0.784 l 0.3125282,2.12 C 5.9786081,15.856 6.1513206,16 6.3569313,16 h 3.2897699 c 0.2056108,0 0.3783238,-0.144 0.4029968,-0.336 l 0.312528,-2.12 c 0.501691,-0.2 0.962259,-0.472 1.389928,-0.784 l 2.047883,0.8 c 0.189162,0.072 0.402996,0 0.50169,-0.176 l 1.644885,-2.768 c 0.09869,-0.176 0.05757,-0.392 -0.09869,-0.512 z M 8.0018164,10.8 c -1.5873141,0 -2.878549,-1.256 -2.878549,-2.8 0,-1.544 1.2912349,-2.8 2.878549,-2.8 1.5873139,0 2.8785496,1.256 2.8785496,2.8 0,1.544 -1.2912357,2.8 -2.8785496,2.8 z"
			id="path829"
			inkscape:connector-curvature="0"
			style="stroke-width:0.81114364;fill:#00a9e0;fill-opacity:1"/>
</svg>
